<?xml version="1.0" encoding="UTF-8" standalone="no"?>
<!DOCTYPE svg PUBLIC "-//W3C//DTD SVG 1.1//EN"
 "http://www.w3.org/Graphics/SVG/1.1/DTD/svg11.dtd">
<!-- Generated by graphviz version 2.38.0 (20140413.2041)
 -->
<!-- Title: G Pages: 1 -->
<svg width="1328pt" height="906pt"
 viewBox="0.00 0.00 1328.00 906.00" xmlns="http://www.w3.org/2000/svg" xmlns:xlink="http://www.w3.org/1999/xlink">
<g id="graph0" class="graph" transform="scale(1 1) rotate(0) translate(4 902)">
<title>G</title>
<polygon fill="white" stroke="none" points="-4,4 -4,-902 1324,-902 1324,4 -4,4"/>
<g id="clust1" class="cluster"><title>cluster_family_0</title>
</g>
<g id="clust4" class="cluster"><title>cluster_family_1</title>
</g>
<g id="clust7" class="cluster"><title>cluster_family_2</title>
</g>
<g id="clust10" class="cluster"><title>cluster_family_3</title>
</g>
<g id="clust13" class="cluster"><title>cluster_family_4</title>
</g>
<g id="clust16" class="cluster"><title>cluster_family_5</title>
</g>
<g id="clust19" class="cluster"><title>cluster_family_6</title>
</g>
<g id="clust22" class="cluster"><title>cluster_family_7</title>
</g>
<g id="clust25" class="cluster"><title>cluster_family_8</title>
</g>
<g id="clust28" class="cluster"><title>cluster_family_9</title>
</g>
<g id="clust31" class="cluster"><title>cluster_family_10</title>
</g>
<g id="clust34" class="cluster"><title>cluster_family_11</title>
</g>
<!-- union_0 -->
<g id="node1" class="node"><title>union_0</title>
<ellipse fill="#1abc9c" stroke="white" cx="220.5" cy="-576" rx="3.5" ry="3.5"/>
</g>
<!-- siblings_0 -->
<g id="node4" class="node"><title>siblings_0</title>
<polygon fill="#1abc9c" stroke="#cccccc" stroke-width="0" points="260,-576.5 253,-576.5 253,-575.5 260,-575.5 260,-576.5"/>
</g>
<!-- union_0&#45;&gt;siblings_0 -->
<g id="edge3" class="edge"><title>union_0&#45;&gt;siblings_0</title>
<path fill="none" stroke="#1abc9c" d="M224.083,-576C230.913,-576 245.732,-576 252.715,-576"/>
</g>
<!-- 爺爺 -->
<g id="node2" class="node"><title>爺爺</title>
<polygon fill="white" stroke="#cccccc" points="188,-627 8,-627 8,-585 188,-585 188,-627"/>
<text text-anchor="start" x="85.5582" y="-608.4" font-family="Helvetica, Arial, sans-serif" font-size="14.00">爺爺</text>
<text text-anchor="start" x="96.6105" y="-594" font-family="Helvetica, Arial, sans-serif" font-size="10.00" fill="#aaaaaa">.</text>
</g>
<!-- 爺爺&#45;&gt;union_0 -->
<g id="edge1" class="edge"><title>爺爺&#45;&gt;union_0</title>
<path fill="none" stroke="#1abc9c" d="M188.038,-591C206.794,-591 221,-591 221,-591 221,-591 221,-583.91 221,-579.479"/>
</g>
<!-- 奶奶 -->
<g id="node3" class="node"><title>奶奶</title>
<polygon fill="white" stroke="#cccccc" points="188,-567 8,-567 8,-525 188,-525 188,-567"/>
<text text-anchor="start" x="78.8102" y="-548.4" font-family="Helvetica, Arial, sans-serif" font-size="14.00">奶奶</text>
<text text-anchor="start" x="96.6105" y="-534" font-family="Helvetica, Arial, sans-serif" font-size="10.00" fill="#aaaaaa">.</text>
</g>
<!-- 奶奶&#45;&gt;union_0 -->
<g id="edge2" class="edge"><title>奶奶&#45;&gt;union_0</title>
<path fill="none" stroke="#1abc9c" d="M188.038,-561C206.794,-561 221,-561 221,-561 221,-561 221,-568.09 221,-572.521"/>
</g>
<!-- 伯父(叔父) -->
<g id="node5" class="node"><title>伯父(叔父)</title>
<polygon fill="white" stroke="#cccccc" points="469,-657 289,-657 289,-615 469,-615 469,-657"/>
<text text-anchor="start" x="340.76" y="-638.4" font-family="Helvetica, Arial, sans-serif" font-size="14.00">伯父(叔父)</text>
<text text-anchor="start" x="377.611" y="-624" font-family="Helvetica, Arial, sans-serif" font-size="10.00" fill="#aaaaaa">.</text>
</g>
<!-- siblings_0&#45;&gt;伯父(叔父) -->
<g id="edge4" class="edge"><title>siblings_0&#45;&gt;伯父(叔父)</title>
<path fill="none" stroke="#1abc9c" d="M257,-576.505C257,-581.449 257,-621 257,-621 257,-621 278.736,-621 278.736,-621"/>
<polygon fill="#1abc9c" stroke="#1abc9c" points="286.735,-611 286.736,-631 282.736,-631 282.735,-611 286.735,-611"/>
<polyline fill="none" stroke="#1abc9c" points="288.736,-621 278.736,-621 "/>
</g>
<!-- 姑媽 -->
<g id="node6" class="node"><title>姑媽</title>
<polygon fill="white" stroke="#cccccc" points="469,-597 289,-597 289,-555 469,-555 469,-597"/>
<text text-anchor="start" x="359.942" y="-578.4" font-family="Helvetica, Arial, sans-serif" font-size="14.00">姑媽</text>
<text text-anchor="start" x="377.611" y="-564" font-family="Helvetica, Arial, sans-serif" font-size="10.00" fill="#aaaaaa">.</text>
</g>
<!-- siblings_0&#45;&gt;姑媽 -->
<g id="edge5" class="edge"><title>siblings_0&#45;&gt;姑媽</title>
<path fill="none" stroke="#1abc9c" d="M260.034,-576C260.034,-576 278.811,-576 278.811,-576"/>
<polygon fill="#1abc9c" stroke="#1abc9c" points="286.81,-566 286.811,-586 282.811,-586 282.81,-566 286.81,-566"/>
<polyline fill="none" stroke="#1abc9c" points="288.811,-576 278.811,-576 "/>
</g>
<!-- 爸爸 -->
<g id="node7" class="node"><title>爸爸</title>
<polygon fill="white" stroke="#cccccc" points="469,-537 289,-537 289,-495 469,-495 469,-537"/>
<text text-anchor="start" x="368.612" y="-518.4" font-family="Helvetica, Arial, sans-serif" font-size="14.00">爸爸</text>
<text text-anchor="start" x="378.111" y="-504" font-family="Helvetica, Arial, sans-serif" font-size="10.00" fill="#aaaaaa">.</text>
</g>
<!-- siblings_0&#45;&gt;爸爸 -->
<g id="edge6" class="edge"><title>siblings_0&#45;&gt;爸爸</title>
<path fill="none" stroke="#1abc9c" d="M258,-575.495C258,-570.551 258,-531 258,-531 258,-531 278.846,-531 278.846,-531"/>
<polygon fill="#1abc9c" stroke="#1abc9c" points="286.846,-521 286.847,-541 282.847,-541 282.846,-521 286.846,-521"/>
<polyline fill="none" stroke="#1abc9c" points="288.846,-531 278.846,-531 "/>
</g>
<!-- union_1 -->
<g id="node8" class="node"><title>union_1</title>
<ellipse fill="#2ecc71" stroke="white" cx="501.5" cy="-809" rx="3.5" ry="3.5"/>
</g>
<!-- 伯父(叔父)&#45;&gt;union_1 -->
<g id="edge7" class="edge"><title>伯父(叔父)&#45;&gt;union_1</title>
<path fill="none" stroke="#2ecc71" d="M469.4,-631C478.232,-631 484,-631 484,-631 484,-631 484,-807.833 484,-807.833 484,-807.833 493.041,-807.833 498.126,-807.833"/>
</g>
<!-- union_2 -->
<g id="node13" class="node"><title>union_2</title>
<ellipse fill="#3498db" stroke="white" cx="501.5" cy="-691" rx="3.5" ry="3.5"/>
</g>
<!-- 姑媽&#45;&gt;union_2 -->
<g id="edge12" class="edge"><title>姑媽&#45;&gt;union_2</title>
<path fill="none" stroke="#3498db" d="M469.116,-577.5C488.348,-577.5 503,-577.5 503,-577.5 503,-577.5 503,-669.116 503,-687.726"/>
</g>
<!-- union_3 -->
<g id="node18" class="node"><title>union_3</title>
<ellipse fill="#9b59b6" stroke="white" cx="501.5" cy="-388" rx="3.5" ry="3.5"/>
</g>
<!-- 爸爸&#45;&gt;union_3 -->
<g id="edge17" class="edge"><title>爸爸&#45;&gt;union_3</title>
<path fill="none" stroke="#9b59b6" d="M469.264,-504C487.391,-504 501,-504 501,-504 501,-504 501,-411.178 501,-391.599"/>
</g>
<!-- siblings_1 -->
<g id="node10" class="node"><title>siblings_1</title>
<polygon fill="#2ecc71" stroke="#cccccc" stroke-width="0" points="541,-809.5 534,-809.5 534,-808.5 541,-808.5 541,-809.5"/>
</g>
<!-- union_1&#45;&gt;siblings_1 -->
<g id="edge9" class="edge"><title>union_1&#45;&gt;siblings_1</title>
<path fill="none" stroke="#2ecc71" d="M505.083,-809C511.913,-809 526.732,-809 533.715,-809"/>
</g>
<!-- 伯母(嬸嬸) -->
<g id="node9" class="node"><title>伯母(嬸嬸)</title>
<polygon fill="white" stroke="#cccccc" points="469,-830 289,-830 289,-788 469,-788 469,-830"/>
<text text-anchor="start" x="343.346" y="-811.4" font-family="Helvetica, Arial, sans-serif" font-size="14.00">伯母(嬸嬸)</text>
<text text-anchor="start" x="313.572" y="-797" font-family="Helvetica, Arial, sans-serif" font-size="10.00" fill="#aaaaaa">伯父(叔父)的丈夫:伯丈(叔丈)</text>
</g>
<!-- 伯母(嬸嬸)&#45;&gt;union_1 -->
<g id="edge8" class="edge"><title>伯母(嬸嬸)&#45;&gt;union_1</title>
<path fill="none" stroke="#2ecc71" d="M469.315,-810.167C482.225,-810.167 492.892,-810.167 498.088,-810.167"/>
</g>
<!-- 堂姐妹 -->
<g id="node11" class="node"><title>堂姐妹</title>
<polygon fill="white" stroke="#cccccc" points="750,-830 570,-830 570,-788 750,-788 750,-830"/>
<text text-anchor="start" x="638.715" y="-811.4" font-family="Helvetica, Arial, sans-serif" font-size="14.00">堂姐妹</text>
<text text-anchor="start" x="659.111" y="-797" font-family="Helvetica, Arial, sans-serif" font-size="10.00" fill="#aaaaaa">.</text>
</g>
<!-- siblings_1&#45;&gt;堂姐妹 -->
<g id="edge10" class="edge"><title>siblings_1&#45;&gt;堂姐妹</title>
<path fill="none" stroke="#2ecc71" d="M541.034,-809C541.034,-809 559.811,-809 559.811,-809"/>
<polygon fill="#2ecc71" stroke="#2ecc71" points="567.81,-799 567.811,-819 563.811,-819 563.81,-799 567.81,-799"/>
<polyline fill="none" stroke="#2ecc71" points="569.811,-809 559.811,-809 "/>
</g>
<!-- 堂兄弟 -->
<g id="node12" class="node"><title>堂兄弟</title>
<polygon fill="white" stroke="#cccccc" points="750,-890 570,-890 570,-848 750,-848 750,-890"/>
<text text-anchor="start" x="637.938" y="-871.4" font-family="Helvetica, Arial, sans-serif" font-size="14.00">堂兄弟</text>
<text text-anchor="start" x="659.111" y="-857" font-family="Helvetica, Arial, sans-serif" font-size="10.00" fill="#aaaaaa">.</text>
</g>
<!-- siblings_1&#45;&gt;堂兄弟 -->
<g id="edge11" class="edge"><title>siblings_1&#45;&gt;堂兄弟</title>
<path fill="none" stroke="#2ecc71" d="M538,-809.674C538,-816.266 538,-869 538,-869 538,-869 559.736,-869 559.736,-869"/>
<polygon fill="#2ecc71" stroke="#2ecc71" points="567.735,-859 567.736,-879 563.736,-879 563.735,-859 567.735,-859"/>
<polyline fill="none" stroke="#2ecc71" points="569.736,-869 559.736,-869 "/>
</g>
<!-- siblings_2 -->
<g id="node15" class="node"><title>siblings_2</title>
<polygon fill="#3498db" stroke="#cccccc" stroke-width="0" points="541,-691.5 534,-691.5 534,-690.5 541,-690.5 541,-691.5"/>
</g>
<!-- union_2&#45;&gt;siblings_2 -->
<g id="edge14" class="edge"><title>union_2&#45;&gt;siblings_2</title>
<path fill="none" stroke="#3498db" d="M505.083,-691C511.913,-691 526.732,-691 533.715,-691"/>
</g>
<!-- 姑丈 -->
<g id="node14" class="node"><title>姑丈</title>
<polygon fill="white" stroke="#cccccc" points="469,-717 289,-717 289,-675 469,-675 469,-717"/>
<text text-anchor="start" x="365.774" y="-698.4" font-family="Helvetica, Arial, sans-serif" font-size="14.00">姑丈</text>
<text text-anchor="start" x="323.868" y="-684" font-family="Helvetica, Arial, sans-serif" font-size="10.00" fill="#aaaaaa">姑媽的妻子:姑母(姑審)</text>
</g>
<!-- 姑丈&#45;&gt;union_2 -->
<g id="edge13" class="edge"><title>姑丈&#45;&gt;union_2</title>
<path fill="none" stroke="#3498db" d="M469.315,-691C481.938,-691 492.417,-691 497.733,-691"/>
</g>
<!-- (爸爸那邊)表姐妹 -->
<g id="node16" class="node"><title>(爸爸那邊)表姐妹</title>
<polygon fill="white" stroke="#cccccc" points="750,-710 570,-710 570,-668 750,-668 750,-710"/>
<text text-anchor="start" x="597.772" y="-691.4" font-family="Helvetica, Arial, sans-serif" font-size="14.00">(爸爸那邊)表姐妹</text>
<text text-anchor="start" x="658.611" y="-677" font-family="Helvetica, Arial, sans-serif" font-size="10.00" fill="#aaaaaa">.</text>
</g>
<!-- siblings_2&#45;&gt;(爸爸那邊)表姐妹 -->
<g id="edge15" class="edge"><title>siblings_2&#45;&gt;(爸爸那邊)表姐妹</title>
<path fill="none" stroke="#3498db" d="M541.034,-691C541.034,-691 559.811,-691 559.811,-691"/>
<polygon fill="#3498db" stroke="#3498db" points="567.81,-681 567.811,-701 563.811,-701 563.81,-681 567.81,-681"/>
<polyline fill="none" stroke="#3498db" points="569.811,-691 559.811,-691 "/>
</g>
<!-- (爸爸那邊)表兄弟 -->
<g id="node17" class="node"><title>(爸爸那邊)表兄弟</title>
<polygon fill="white" stroke="#cccccc" points="750,-770 570,-770 570,-728 750,-728 750,-770"/>
<text text-anchor="start" x="596.994" y="-751.4" font-family="Helvetica, Arial, sans-serif" font-size="14.00">(爸爸那邊)表兄弟</text>
<text text-anchor="start" x="658.611" y="-737" font-family="Helvetica, Arial, sans-serif" font-size="10.00" fill="#aaaaaa">.</text>
</g>
<!-- siblings_2&#45;&gt;(爸爸那邊)表兄弟 -->
<g id="edge16" class="edge"><title>siblings_2&#45;&gt;(爸爸那邊)表兄弟</title>
<path fill="none" stroke="#3498db" d="M538,-691.651C538,-698.023 538,-749 538,-749 538,-749 559.736,-749 559.736,-749"/>
<polygon fill="#3498db" stroke="#3498db" points="567.735,-739 567.736,-759 563.736,-759 563.735,-739 567.735,-739"/>
<polyline fill="none" stroke="#3498db" points="569.736,-749 559.736,-749 "/>
</g>
<!-- siblings_3 -->
<g id="node20" class="node"><title>siblings_3</title>
<polygon fill="#9b59b6" stroke="#cccccc" stroke-width="0" points="541,-388.5 534,-388.5 534,-387.5 541,-387.5 541,-388.5"/>
</g>
<!-- union_3&#45;&gt;siblings_3 -->
<g id="edge19" class="edge"><title>union_3&#45;&gt;siblings_3</title>
<path fill="none" stroke="#9b59b6" d="M505.083,-388C511.913,-388 526.732,-388 533.715,-388"/>
</g>
<!-- 媽媽 -->
<g id="node19" class="node"><title>媽媽</title>
<polygon fill="white" stroke="#cccccc" points="469,-379 289,-379 289,-337 469,-337 469,-379"/>
<text text-anchor="start" x="356.949" y="-360.4" font-family="Helvetica, Arial, sans-serif" font-size="14.00">媽媽</text>
<text text-anchor="start" x="378.111" y="-346" font-family="Helvetica, Arial, sans-serif" font-size="10.00" fill="#aaaaaa">.</text>
</g>
<!-- 媽媽&#45;&gt;union_3 -->
<g id="edge18" class="edge"><title>媽媽&#45;&gt;union_3</title>
<path fill="none" stroke="#9b59b6" d="M469.038,-373C487.794,-373 502,-373 502,-373 502,-373 502,-380.09 502,-384.521"/>
</g>
<!-- 哥哥(弟弟) -->
<g id="node21" class="node"><title>哥哥(弟弟)</title>
<polygon fill="white" stroke="#cccccc" points="750,-469 570,-469 570,-427 750,-427 750,-469"/>
<text text-anchor="start" x="617.994" y="-450.4" font-family="Helvetica, Arial, sans-serif" font-size="14.00">哥哥(弟弟)</text>
<text text-anchor="start" x="658.611" y="-436" font-family="Helvetica, Arial, sans-serif" font-size="10.00" fill="#aaaaaa">.</text>
</g>
<!-- siblings_3&#45;&gt;哥哥(弟弟) -->
<g id="edge20" class="edge"><title>siblings_3&#45;&gt;哥哥(弟弟)</title>
<path fill="none" stroke="#9b59b6" d="M538,-388.674C538,-395.266 538,-448 538,-448 538,-448 559.736,-448 559.736,-448"/>
<polygon fill="#9b59b6" stroke="#9b59b6" points="567.735,-438 567.736,-458 563.736,-458 563.735,-438 567.735,-438"/>
<polyline fill="none" stroke="#9b59b6" points="569.736,-448 559.736,-448 "/>
</g>
<!-- 我 -->
<g id="node22" class="node"><title>我</title>
<polygon fill="white" stroke="#cccccc" points="750,-409 570,-409 570,-367 750,-367 750,-409"/>
<text text-anchor="start" x="654.664" y="-390.4" font-family="Helvetica, Arial, sans-serif" font-size="14.00">我</text>
<text text-anchor="start" x="659.111" y="-376" font-family="Helvetica, Arial, sans-serif" font-size="10.00" fill="#aaaaaa">.</text>
</g>
<!-- siblings_3&#45;&gt;我 -->
<g id="edge21" class="edge"><title>siblings_3&#45;&gt;我</title>
<path fill="none" stroke="#9b59b6" d="M541.034,-388C541.034,-388 559.811,-388 559.811,-388"/>
<polygon fill="#9b59b6" stroke="#9b59b6" points="567.81,-378 567.811,-398 563.811,-398 563.81,-378 567.81,-378"/>
<polyline fill="none" stroke="#9b59b6" points="569.811,-388 559.811,-388 "/>
</g>
<!-- 姐姐(妹妹) -->
<g id="node23" class="node"><title>姐姐(妹妹)</title>
<polygon fill="white" stroke="#cccccc" points="750,-349 570,-349 570,-307 750,-307 750,-349"/>
<text text-anchor="start" x="623.942" y="-330.4" font-family="Helvetica, Arial, sans-serif" font-size="14.00">姐姐(妹妹)</text>
<text text-anchor="start" x="659.111" y="-316" font-family="Helvetica, Arial, sans-serif" font-size="10.00" fill="#aaaaaa">.</text>
</g>
<!-- siblings_3&#45;&gt;姐姐(妹妹) -->
<g id="edge22" class="edge"><title>siblings_3&#45;&gt;姐姐(妹妹)</title>
<path fill="none" stroke="#9b59b6" d="M538,-387.495C538,-382.551 538,-343 538,-343 538,-343 559.736,-343 559.736,-343"/>
<polygon fill="#9b59b6" stroke="#9b59b6" points="567.735,-333 567.736,-353 563.736,-353 563.735,-333 567.735,-333"/>
<polyline fill="none" stroke="#9b59b6" points="569.736,-343 559.736,-343 "/>
</g>
<!-- union_4 -->
<g id="node24" class="node"><title>union_4</title>
<ellipse fill="#34495e" stroke="white" cx="782.5" cy="-579" rx="3.5" ry="3.5"/>
</g>
<!-- 哥哥(弟弟)&#45;&gt;union_4 -->
<g id="edge23" class="edge"><title>哥哥(弟弟)&#45;&gt;union_4</title>
<path fill="none" stroke="#34495e" d="M750.038,-463.5C768.794,-463.5 783,-463.5 783,-463.5 783,-463.5 783,-555.922 783,-575.417"/>
</g>
<!-- union_6 -->
<g id="node34" class="node"><title>union_6</title>
<ellipse fill="#e67e22" stroke="white" cx="782.5" cy="-388" rx="3.5" ry="3.5"/>
</g>
<!-- 我&#45;&gt;union_6 -->
<g id="edge33" class="edge"><title>我&#45;&gt;union_6</title>
<path fill="none" stroke="#e67e22" d="M750.315,-388C762.938,-388 773.417,-388 778.733,-388"/>
</g>
<!-- union_5 -->
<g id="node29" class="node"><title>union_5</title>
<ellipse fill="#f1c40f" stroke="white" cx="782.5" cy="-199" rx="3.5" ry="3.5"/>
</g>
<!-- 姐姐(妹妹)&#45;&gt;union_5 -->
<g id="edge28" class="edge"><title>姐姐(妹妹)&#45;&gt;union_5</title>
<path fill="none" stroke="#f1c40f" d="M750.038,-313.5C768.794,-313.5 783,-313.5 783,-313.5 783,-313.5 783,-221.879 783,-202.552"/>
</g>
<!-- siblings_4 -->
<g id="node26" class="node"><title>siblings_4</title>
<polygon fill="#34495e" stroke="#cccccc" stroke-width="0" points="822,-579.5 815,-579.5 815,-578.5 822,-578.5 822,-579.5"/>
</g>
<!-- union_4&#45;&gt;siblings_4 -->
<g id="edge25" class="edge"><title>union_4&#45;&gt;siblings_4</title>
<path fill="none" stroke="#34495e" d="M786.083,-579C792.913,-579 807.732,-579 814.715,-579"/>
</g>
<!-- 嫂嫂(弟媳) -->
<g id="node25" class="node"><title>嫂嫂(弟媳)</title>
<polygon fill="white" stroke="#cccccc" points="750,-600 570,-600 570,-558 750,-558 750,-600"/>
<text text-anchor="start" x="620.718" y="-581.4" font-family="Helvetica, Arial, sans-serif" font-size="14.00">嫂嫂(弟媳)</text>
<text text-anchor="start" x="606.814" y="-567" font-family="Helvetica, Arial, sans-serif" font-size="10.00" fill="#aaaaaa">兄弟的老公:兄夫(弟婿)</text>
</g>
<!-- 嫂嫂(弟媳)&#45;&gt;union_4 -->
<g id="edge24" class="edge"><title>嫂嫂(弟媳)&#45;&gt;union_4</title>
<path fill="none" stroke="#34495e" d="M750.315,-579C762.938,-579 773.417,-579 778.733,-579"/>
</g>
<!-- 姪子 -->
<g id="node27" class="node"><title>姪子</title>
<polygon fill="white" stroke="#cccccc" points="1031,-600 851,-600 851,-558 1031,-558 1031,-600"/>
<text text-anchor="start" x="926.612" y="-581.4" font-family="Helvetica, Arial, sans-serif" font-size="14.00">姪子</text>
<text text-anchor="start" x="939.611" y="-567" font-family="Helvetica, Arial, sans-serif" font-size="10.00" fill="#aaaaaa">.</text>
</g>
<!-- siblings_4&#45;&gt;姪子 -->
<g id="edge26" class="edge"><title>siblings_4&#45;&gt;姪子</title>
<path fill="none" stroke="#34495e" d="M822.034,-579C822.034,-579 840.811,-579 840.811,-579"/>
<polygon fill="#34495e" stroke="#34495e" points="848.81,-569 848.811,-589 844.811,-589 844.81,-569 848.81,-569"/>
<polyline fill="none" stroke="#34495e" points="850.811,-579 840.811,-579 "/>
</g>
<!-- 姪女 -->
<g id="node28" class="node"><title>姪女</title>
<polygon fill="white" stroke="#cccccc" points="1031,-660 851,-660 851,-618 1031,-618 1031,-660"/>
<text text-anchor="start" x="923.605" y="-641.4" font-family="Helvetica, Arial, sans-serif" font-size="14.00">姪女</text>
<text text-anchor="start" x="940.111" y="-627" font-family="Helvetica, Arial, sans-serif" font-size="10.00" fill="#aaaaaa">.</text>
</g>
<!-- siblings_4&#45;&gt;姪女 -->
<g id="edge27" class="edge"><title>siblings_4&#45;&gt;姪女</title>
<path fill="none" stroke="#34495e" d="M819,-579.73C819,-586.871 819,-644 819,-644 819,-644 840.736,-644 840.736,-644"/>
<polygon fill="#34495e" stroke="#34495e" points="848.735,-634 848.736,-654 844.736,-654 844.735,-634 848.735,-634"/>
<polyline fill="none" stroke="#34495e" points="850.736,-644 840.736,-644 "/>
</g>
<!-- siblings_5 -->
<g id="node31" class="node"><title>siblings_5</title>
<polygon fill="#f1c40f" stroke="#cccccc" stroke-width="0" points="822,-199.5 815,-199.5 815,-198.5 822,-198.5 822,-199.5"/>
</g>
<!-- union_5&#45;&gt;siblings_5 -->
<g id="edge30" class="edge"><title>union_5&#45;&gt;siblings_5</title>
<path fill="none" stroke="#f1c40f" d="M786.083,-199C792.913,-199 807.732,-199 814.715,-199"/>
</g>
<!-- 姐夫(妹夫) -->
<g id="node30" class="node"><title>姐夫(妹夫)</title>
<polygon fill="white" stroke="#cccccc" points="750,-220 570,-220 570,-178 750,-178 750,-220"/>
<text text-anchor="start" x="625.381" y="-201.4" font-family="Helvetica, Arial, sans-serif" font-size="14.00">姐夫(妹夫)</text>
<text text-anchor="start" x="605.545" y="-187" font-family="Helvetica, Arial, sans-serif" font-size="10.00" fill="#aaaaaa">姐妹的妻子:姐嫂(妹媳)</text>
</g>
<!-- 姐夫(妹夫)&#45;&gt;union_5 -->
<g id="edge29" class="edge"><title>姐夫(妹夫)&#45;&gt;union_5</title>
<path fill="none" stroke="#f1c40f" d="M750.315,-199C762.938,-199 773.417,-199 778.733,-199"/>
</g>
<!-- 外甥 -->
<g id="node32" class="node"><title>外甥</title>
<polygon fill="white" stroke="#cccccc" points="1031,-160 851,-160 851,-118 1031,-118 1031,-160"/>
<text text-anchor="start" x="928.659" y="-141.4" font-family="Helvetica, Arial, sans-serif" font-size="14.00">外甥</text>
<text text-anchor="start" x="940.111" y="-127" font-family="Helvetica, Arial, sans-serif" font-size="10.00" fill="#aaaaaa">.</text>
</g>
<!-- siblings_5&#45;&gt;外甥 -->
<g id="edge31" class="edge"><title>siblings_5&#45;&gt;外甥</title>
<path fill="none" stroke="#f1c40f" d="M819,-198.248C819,-190.887 819,-132 819,-132 819,-132 840.736,-132 840.736,-132"/>
<polygon fill="#f1c40f" stroke="#f1c40f" points="848.735,-122 848.736,-142 844.736,-142 844.735,-122 848.735,-122"/>
<polyline fill="none" stroke="#f1c40f" points="850.736,-132 840.736,-132 "/>
</g>
<!-- 外甥女 -->
<g id="node33" class="node"><title>外甥女</title>
<polygon fill="white" stroke="#cccccc" points="1031,-220 851,-220 851,-178 1031,-178 1031,-220"/>
<text text-anchor="start" x="918.931" y="-201.4" font-family="Helvetica, Arial, sans-serif" font-size="14.00">外甥女</text>
<text text-anchor="start" x="940.111" y="-187" font-family="Helvetica, Arial, sans-serif" font-size="10.00" fill="#aaaaaa">.</text>
</g>
<!-- siblings_5&#45;&gt;外甥女 -->
<g id="edge32" class="edge"><title>siblings_5&#45;&gt;外甥女</title>
<path fill="none" stroke="#f1c40f" d="M822.034,-199C822.034,-199 840.811,-199 840.811,-199"/>
<polygon fill="#f1c40f" stroke="#f1c40f" points="848.81,-189 848.811,-209 844.811,-209 844.81,-189 848.81,-189"/>
<polyline fill="none" stroke="#f1c40f" points="850.811,-199 840.811,-199 "/>
</g>
<!-- siblings_6 -->
<g id="node35" class="node"><title>siblings_6</title>
<polygon fill="#e67e22" stroke="#cccccc" stroke-width="0" points="822,-388.5 815,-388.5 815,-387.5 822,-387.5 822,-388.5"/>
</g>
<!-- union_6&#45;&gt;siblings_6 -->
<g id="edge34" class="edge"><title>union_6&#45;&gt;siblings_6</title>
<path fill="none" stroke="#e67e22" d="M786.083,-388C792.913,-388 807.732,-388 814.715,-388"/>
</g>
<!-- 兒子 -->
<g id="node36" class="node"><title>兒子</title>
<polygon fill="white" stroke="#cccccc" points="1031,-440 851,-440 851,-398 1031,-398 1031,-440"/>
<text text-anchor="start" x="928.943" y="-421.4" font-family="Helvetica, Arial, sans-serif" font-size="14.00">兒子</text>
<text text-anchor="start" x="939.611" y="-407" font-family="Helvetica, Arial, sans-serif" font-size="10.00" fill="#aaaaaa">.</text>
</g>
<!-- siblings_6&#45;&gt;兒子 -->
<g id="edge35" class="edge"><title>siblings_6&#45;&gt;兒子</title>
<path fill="none" stroke="#e67e22" d="M819,-388.666C819,-391.633 819,-403.5 819,-403.5 819,-403.5 840.736,-403.5 840.736,-403.5"/>
<polygon fill="#e67e22" stroke="#e67e22" points="848.735,-393.5 848.736,-413.5 844.736,-413.5 844.735,-393.5 848.735,-393.5"/>
<polyline fill="none" stroke="#e67e22" points="850.736,-403.5 840.736,-403.5 "/>
</g>
<!-- 女兒 -->
<g id="node37" class="node"><title>女兒</title>
<polygon fill="white" stroke="#cccccc" points="1031,-380 851,-380 851,-338 1031,-338 1031,-380"/>
<text text-anchor="start" x="925.936" y="-361.4" font-family="Helvetica, Arial, sans-serif" font-size="14.00">女兒</text>
<text text-anchor="start" x="940.111" y="-347" font-family="Helvetica, Arial, sans-serif" font-size="10.00" fill="#aaaaaa">.</text>
</g>
<!-- siblings_6&#45;&gt;女兒 -->
<g id="edge36" class="edge"><title>siblings_6&#45;&gt;女兒</title>
<path fill="none" stroke="#e67e22" d="M819,-387.377C819,-384.602 819,-373.5 819,-373.5 819,-373.5 840.736,-373.5 840.736,-373.5"/>
<polygon fill="#e67e22" stroke="#e67e22" points="848.735,-363.5 848.736,-383.5 844.736,-383.5 844.735,-363.5 848.735,-363.5"/>
<polyline fill="none" stroke="#e67e22" points="850.736,-373.5 840.736,-373.5 "/>
</g>
<!-- union_7 -->
<g id="node38" class="node"><title>union_7</title>
<ellipse fill="#e74c3c" stroke="white" cx="1063.5" cy="-474" rx="3.5" ry="3.5"/>
</g>
<!-- 兒子&#45;&gt;union_7 -->
<g id="edge37" class="edge"><title>兒子&#45;&gt;union_7</title>
<path fill="none" stroke="#e74c3c" d="M1031.26,-419C1049.39,-419 1063,-419 1063,-419 1063,-419 1063,-458.155 1063,-470.391"/>
</g>
<!-- union_8 -->
<g id="node43" class="node"><title>union_8</title>
<ellipse fill="#1abc9c" stroke="white" cx="1063.5" cy="-304" rx="3.5" ry="3.5"/>
</g>
<!-- 女兒&#45;&gt;union_8 -->
<g id="edge42" class="edge"><title>女兒&#45;&gt;union_8</title>
<path fill="none" stroke="#1abc9c" d="M1031.12,-359C1050.35,-359 1065,-359 1065,-359 1065,-359 1065,-319.116 1065,-307.276"/>
</g>
<!-- siblings_7 -->
<g id="node40" class="node"><title>siblings_7</title>
<polygon fill="#e74c3c" stroke="#cccccc" stroke-width="0" points="1103,-474.5 1096,-474.5 1096,-473.5 1103,-473.5 1103,-474.5"/>
</g>
<!-- union_7&#45;&gt;siblings_7 -->
<g id="edge39" class="edge"><title>union_7&#45;&gt;siblings_7</title>
<path fill="none" stroke="#e74c3c" d="M1067.08,-474C1073.91,-474 1088.73,-474 1095.72,-474"/>
</g>
<!-- 媳婦 -->
<g id="node39" class="node"><title>媳婦</title>
<polygon fill="white" stroke="#cccccc" points="1031,-500 851,-500 851,-458 1031,-458 1031,-500"/>
<text text-anchor="start" x="925.66" y="-481.4" font-family="Helvetica, Arial, sans-serif" font-size="14.00">媳婦</text>
<text text-anchor="start" x="906.986" y="-467" font-family="Helvetica, Arial, sans-serif" font-size="10.00" fill="#aaaaaa">兒子的老公:子婿</text>
</g>
<!-- 媳婦&#45;&gt;union_7 -->
<g id="edge38" class="edge"><title>媳婦&#45;&gt;union_7</title>
<path fill="none" stroke="#e74c3c" d="M1031.31,-474C1043.94,-474 1054.42,-474 1059.73,-474"/>
</g>
<!-- 孫子 -->
<g id="node41" class="node"><title>孫子</title>
<polygon fill="white" stroke="#cccccc" points="1312,-490 1132,-490 1132,-448 1312,-448 1312,-490"/>
<text text-anchor="start" x="1207.61" y="-471.4" font-family="Helvetica, Arial, sans-serif" font-size="14.00">孫子</text>
<text text-anchor="start" x="1220.61" y="-457" font-family="Helvetica, Arial, sans-serif" font-size="10.00" fill="#aaaaaa">.</text>
</g>
<!-- siblings_7&#45;&gt;孫子 -->
<g id="edge40" class="edge"><title>siblings_7&#45;&gt;孫子</title>
<path fill="none" stroke="#e74c3c" d="M1103.03,-474C1103.03,-474 1121.81,-474 1121.81,-474"/>
<polygon fill="#e74c3c" stroke="#e74c3c" points="1129.81,-464 1129.81,-484 1125.81,-484 1125.81,-464 1129.81,-464"/>
<polyline fill="none" stroke="#e74c3c" points="1131.81,-474 1121.81,-474 "/>
</g>
<!-- 孫女 -->
<g id="node42" class="node"><title>孫女</title>
<polygon fill="white" stroke="#cccccc" points="1312,-550 1132,-550 1132,-508 1312,-508 1312,-550"/>
<text text-anchor="start" x="1204.61" y="-531.4" font-family="Helvetica, Arial, sans-serif" font-size="14.00">孫女</text>
<text text-anchor="start" x="1221.11" y="-517" font-family="Helvetica, Arial, sans-serif" font-size="10.00" fill="#aaaaaa">.</text>
</g>
<!-- siblings_7&#45;&gt;孫女 -->
<g id="edge41" class="edge"><title>siblings_7&#45;&gt;孫女</title>
<path fill="none" stroke="#e74c3c" d="M1100,-474.545C1100,-479.873 1100,-522.5 1100,-522.5 1100,-522.5 1121.74,-522.5 1121.74,-522.5"/>
<polygon fill="#e74c3c" stroke="#e74c3c" points="1129.74,-512.5 1129.74,-532.5 1125.74,-532.5 1125.74,-512.5 1129.74,-512.5"/>
<polyline fill="none" stroke="#e74c3c" points="1131.74,-522.5 1121.74,-522.5 "/>
</g>
<!-- siblings_8 -->
<g id="node45" class="node"><title>siblings_8</title>
<polygon fill="#1abc9c" stroke="#cccccc" stroke-width="0" points="1103,-304.5 1096,-304.5 1096,-303.5 1103,-303.5 1103,-304.5"/>
</g>
<!-- union_8&#45;&gt;siblings_8 -->
<g id="edge44" class="edge"><title>union_8&#45;&gt;siblings_8</title>
<path fill="none" stroke="#1abc9c" d="M1067.08,-304C1073.91,-304 1088.73,-304 1095.72,-304"/>
</g>
<!-- 女婿 -->
<g id="node44" class="node"><title>女婿</title>
<polygon fill="white" stroke="#cccccc" points="1031,-320 851,-320 851,-278 1031,-278 1031,-320"/>
<text text-anchor="start" x="924.214" y="-301.4" font-family="Helvetica, Arial, sans-serif" font-size="14.00">女婿</text>
<text text-anchor="start" x="900.651" y="-287" font-family="Helvetica, Arial, sans-serif" font-size="10.00" fill="#aaaaaa">女兒的妻子:女媳</text>
</g>
<!-- 女婿&#45;&gt;union_8 -->
<g id="edge43" class="edge"><title>女婿&#45;&gt;union_8</title>
<path fill="none" stroke="#1abc9c" d="M1031.31,-304C1043.94,-304 1054.42,-304 1059.73,-304"/>
</g>
<!-- 外孫子 -->
<g id="node46" class="node"><title>外孫子</title>
<polygon fill="white" stroke="#cccccc" points="1312,-270 1132,-270 1132,-228 1312,-228 1312,-270"/>
<text text-anchor="start" x="1202.55" y="-251.4" font-family="Helvetica, Arial, sans-serif" font-size="14.00">外孫子</text>
<text text-anchor="start" x="1220.61" y="-237" font-family="Helvetica, Arial, sans-serif" font-size="10.00" fill="#aaaaaa">.</text>
</g>
<!-- siblings_8&#45;&gt;外孫子 -->
<g id="edge45" class="edge"><title>siblings_8&#45;&gt;外孫子</title>
<path fill="none" stroke="#1abc9c" d="M1100,-303.481C1100,-298.399 1100,-257.75 1100,-257.75 1100,-257.75 1121.74,-257.75 1121.74,-257.75"/>
<polygon fill="#1abc9c" stroke="#1abc9c" points="1129.74,-247.75 1129.74,-267.75 1125.74,-267.75 1125.74,-247.75 1129.74,-247.75"/>
<polyline fill="none" stroke="#1abc9c" points="1131.74,-257.75 1121.74,-257.75 "/>
</g>
<!-- 外孫女 -->
<g id="node47" class="node"><title>外孫女</title>
<polygon fill="white" stroke="#cccccc" points="1312,-330 1132,-330 1132,-288 1312,-288 1312,-330"/>
<text text-anchor="start" x="1199.55" y="-311.4" font-family="Helvetica, Arial, sans-serif" font-size="14.00">外孫女</text>
<text text-anchor="start" x="1221.11" y="-297" font-family="Helvetica, Arial, sans-serif" font-size="10.00" fill="#aaaaaa">.</text>
</g>
<!-- siblings_8&#45;&gt;外孫女 -->
<g id="edge46" class="edge"><title>siblings_8&#45;&gt;外孫女</title>
<path fill="none" stroke="#1abc9c" d="M1103.03,-304C1103.03,-304 1121.81,-304 1121.81,-304"/>
<polygon fill="#1abc9c" stroke="#1abc9c" points="1129.81,-294 1129.81,-314 1125.81,-314 1125.81,-294 1129.81,-294"/>
<polyline fill="none" stroke="#1abc9c" points="1131.81,-304 1121.81,-304 "/>
</g>
<!-- union_9 -->
<g id="node48" class="node"><title>union_9</title>
<ellipse fill="#2ecc71" stroke="white" cx="220.5" cy="-199" rx="3.5" ry="3.5"/>
</g>
<!-- siblings_9 -->
<g id="node51" class="node"><title>siblings_9</title>
<polygon fill="#2ecc71" stroke="#cccccc" stroke-width="0" points="260,-199.5 253,-199.5 253,-198.5 260,-198.5 260,-199.5"/>
</g>
<!-- union_9&#45;&gt;siblings_9 -->
<g id="edge49" class="edge"><title>union_9&#45;&gt;siblings_9</title>
<path fill="none" stroke="#2ecc71" d="M224.083,-199C230.913,-199 245.732,-199 252.715,-199"/>
</g>
<!-- 外公 -->
<g id="node49" class="node"><title>外公</title>
<polygon fill="white" stroke="#cccccc" points="188,-220 8,-220 8,-178 188,-178 188,-220"/>
<text text-anchor="start" x="86.7202" y="-201.4" font-family="Helvetica, Arial, sans-serif" font-size="14.00">外公</text>
<text text-anchor="start" x="96.6105" y="-187" font-family="Helvetica, Arial, sans-serif" font-size="10.00" fill="#aaaaaa">.</text>
</g>
<!-- 外公&#45;&gt;union_9 -->
<g id="edge47" class="edge"><title>外公&#45;&gt;union_9</title>
<path fill="none" stroke="#2ecc71" d="M188.315,-199C200.938,-199 211.417,-199 216.733,-199"/>
</g>
<!-- 外婆 -->
<g id="node50" class="node"><title>外婆</title>
<polygon fill="white" stroke="#cccccc" points="188,-160 8,-160 8,-118 188,-118 188,-160"/>
<text text-anchor="start" x="87.7142" y="-141.4" font-family="Helvetica, Arial, sans-serif" font-size="14.00">外婆</text>
<text text-anchor="start" x="96.6105" y="-127" font-family="Helvetica, Arial, sans-serif" font-size="10.00" fill="#aaaaaa">.</text>
</g>
<!-- 外婆&#45;&gt;union_9 -->
<g id="edge48" class="edge"><title>外婆&#45;&gt;union_9</title>
<path fill="none" stroke="#2ecc71" d="M188.038,-146C206.794,-146 221,-146 221,-146 221,-146 221,-183.731 221,-195.523"/>
</g>
<!-- siblings_9&#45;&gt;媽媽 -->
<g id="edge50" class="edge"><title>siblings_9&#45;&gt;媽媽</title>
<path fill="none" stroke="#2ecc71" d="M256,-199.709C256,-211.179 256,-358 256,-358 256,-358 278.962,-358 278.962,-358"/>
<polygon fill="#2ecc71" stroke="#2ecc71" points="286.962,-348 286.962,-368 282.962,-368 282.962,-348 286.962,-348"/>
<polyline fill="none" stroke="#2ecc71" points="288.962,-358 278.962,-358 "/>
</g>
<!-- 舅舅 -->
<g id="node52" class="node"><title>舅舅</title>
<polygon fill="white" stroke="#cccccc" points="469,-160 289,-160 289,-118 469,-118 469,-160"/>
<text text-anchor="start" x="363.936" y="-141.4" font-family="Helvetica, Arial, sans-serif" font-size="14.00">舅舅</text>
<text text-anchor="start" x="378.111" y="-127" font-family="Helvetica, Arial, sans-serif" font-size="10.00" fill="#aaaaaa">.</text>
</g>
<!-- siblings_9&#45;&gt;舅舅 -->
<g id="edge51" class="edge"><title>siblings_9&#45;&gt;舅舅</title>
<path fill="none" stroke="#2ecc71" d="M257,-198.248C257,-190.887 257,-132 257,-132 257,-132 278.736,-132 278.736,-132"/>
<polygon fill="#2ecc71" stroke="#2ecc71" points="286.735,-122 286.736,-142 282.736,-142 282.735,-122 286.735,-122"/>
<polyline fill="none" stroke="#2ecc71" points="288.736,-132 278.736,-132 "/>
</g>
<!-- 姨媽 -->
<g id="node53" class="node"><title>姨媽</title>
<polygon fill="white" stroke="#cccccc" points="469,-220 289,-220 289,-178 469,-178 469,-220"/>
<text text-anchor="start" x="357.997" y="-201.4" font-family="Helvetica, Arial, sans-serif" font-size="14.00">姨媽</text>
<text text-anchor="start" x="377.611" y="-187" font-family="Helvetica, Arial, sans-serif" font-size="10.00" fill="#aaaaaa">.</text>
</g>
<!-- siblings_9&#45;&gt;姨媽 -->
<g id="edge52" class="edge"><title>siblings_9&#45;&gt;姨媽</title>
<path fill="none" stroke="#2ecc71" d="M260.034,-199C260.034,-199 278.811,-199 278.811,-199"/>
<polygon fill="#2ecc71" stroke="#2ecc71" points="286.81,-189 286.811,-209 282.811,-209 282.81,-189 286.81,-189"/>
<polyline fill="none" stroke="#2ecc71" points="288.811,-199 278.811,-199 "/>
</g>
<!-- union_10 -->
<g id="node54" class="node"><title>union_10</title>
<ellipse fill="#3498db" stroke="white" cx="501.5" cy="-84" rx="3.5" ry="3.5"/>
</g>
<!-- 舅舅&#45;&gt;union_10 -->
<g id="edge53" class="edge"><title>舅舅&#45;&gt;union_10</title>
<path fill="none" stroke="#3498db" d="M469.264,-146C487.391,-146 501,-146 501,-146 501,-146 501,-101.04 501,-87.6927"/>
</g>
<!-- union_11 -->
<g id="node59" class="node"><title>union_11</title>
<ellipse fill="#9b59b6" stroke="white" cx="501.5" cy="-242" rx="3.5" ry="3.5"/>
</g>
<!-- 姨媽&#45;&gt;union_11 -->
<g id="edge58" class="edge"><title>姨媽&#45;&gt;union_11</title>
<path fill="none" stroke="#9b59b6" d="M469.116,-199C488.348,-199 503,-199 503,-199 503,-199 503,-228.489 503,-238.626"/>
</g>
<!-- siblings_10 -->
<g id="node56" class="node"><title>siblings_10</title>
<polygon fill="#3498db" stroke="#cccccc" stroke-width="0" points="541,-84.5 534,-84.5 534,-83.5 541,-83.5 541,-84.5"/>
</g>
<!-- union_10&#45;&gt;siblings_10 -->
<g id="edge55" class="edge"><title>union_10&#45;&gt;siblings_10</title>
<path fill="none" stroke="#3498db" d="M505.083,-84C511.913,-84 526.732,-84 533.715,-84"/>
</g>
<!-- 舅媽 -->
<g id="node55" class="node"><title>舅媽</title>
<polygon fill="white" stroke="#cccccc" points="469,-100 289,-100 289,-58 469,-58 469,-100"/>
<text text-anchor="start" x="359.942" y="-81.4" font-family="Helvetica, Arial, sans-serif" font-size="14.00">舅媽</text>
<text text-anchor="start" x="343.986" y="-67" font-family="Helvetica, Arial, sans-serif" font-size="10.00" fill="#aaaaaa">舅舅的丈夫:舅丈</text>
</g>
<!-- 舅媽&#45;&gt;union_10 -->
<g id="edge54" class="edge"><title>舅媽&#45;&gt;union_10</title>
<path fill="none" stroke="#3498db" d="M469.315,-84C481.938,-84 492.417,-84 497.733,-84"/>
</g>
<!-- (媽媽那邊)表姐妹 -->
<g id="node57" class="node"><title>(媽媽那邊)表姐妹</title>
<polygon fill="white" stroke="#cccccc" points="750,-50 570,-50 570,-8 750,-8 750,-50"/>
<text text-anchor="start" x="586.609" y="-31.4" font-family="Helvetica, Arial, sans-serif" font-size="14.00">(媽媽那邊)表姐妹</text>
<text text-anchor="start" x="659.111" y="-17" font-family="Helvetica, Arial, sans-serif" font-size="10.00" fill="#aaaaaa">.</text>
</g>
<!-- siblings_10&#45;&gt;(媽媽那邊)表姐妹 -->
<g id="edge56" class="edge"><title>siblings_10&#45;&gt;(媽媽那邊)表姐妹</title>
<path fill="none" stroke="#3498db" d="M538,-83.3037C538,-76.4922 538,-22 538,-22 538,-22 559.736,-22 559.736,-22"/>
<polygon fill="#3498db" stroke="#3498db" points="567.735,-12 567.736,-32 563.736,-32.0001 563.735,-12.0001 567.735,-12"/>
<polyline fill="none" stroke="#3498db" points="569.736,-22 559.736,-22.0001 "/>
</g>
<!-- (媽媽那邊)表兄弟 -->
<g id="node58" class="node"><title>(媽媽那邊)表兄弟</title>
<polygon fill="white" stroke="#cccccc" points="750,-110 570,-110 570,-68 750,-68 750,-110"/>
<text text-anchor="start" x="585.831" y="-91.4" font-family="Helvetica, Arial, sans-serif" font-size="14.00">(媽媽那邊)表兄弟</text>
<text text-anchor="start" x="659.111" y="-77" font-family="Helvetica, Arial, sans-serif" font-size="10.00" fill="#aaaaaa">.</text>
</g>
<!-- siblings_10&#45;&gt;(媽媽那邊)表兄弟 -->
<g id="edge57" class="edge"><title>siblings_10&#45;&gt;(媽媽那邊)表兄弟</title>
<path fill="none" stroke="#3498db" d="M541.034,-84C541.034,-84 559.811,-84 559.811,-84"/>
<polygon fill="#3498db" stroke="#3498db" points="567.81,-74 567.811,-94 563.811,-94.0001 563.81,-74.0001 567.81,-74"/>
<polyline fill="none" stroke="#3498db" points="569.811,-84 559.811,-84.0001 "/>
</g>
<!-- siblings_11 -->
<g id="node61" class="node"><title>siblings_11</title>
<polygon fill="#9b59b6" stroke="#cccccc" stroke-width="0" points="541,-239.5 534,-239.5 534,-238.5 541,-238.5 541,-239.5"/>
</g>
<!-- union_11&#45;&gt;siblings_11 -->
<g id="edge60" class="edge"><title>union_11&#45;&gt;siblings_11</title>
<path fill="none" stroke="#9b59b6" d="M503.862,-239.25C509.994,-239.25 526.454,-239.25 533.833,-239.25"/>
</g>
<!-- 姨丈 -->
<g id="node60" class="node"><title>姨丈</title>
<polygon fill="white" stroke="#cccccc" points="469,-280 289,-280 289,-238 469,-238 469,-280"/>
<text text-anchor="start" x="363.828" y="-261.4" font-family="Helvetica, Arial, sans-serif" font-size="14.00">姨丈</text>
<text text-anchor="start" x="334.541" y="-247" font-family="Helvetica, Arial, sans-serif" font-size="10.00" fill="#aaaaaa">姨媽的妻子:姨妗</text>
</g>
<!-- 姨丈&#45;&gt;union_11 -->
<g id="edge59" class="edge"><title>姨丈&#45;&gt;union_11</title>
<path fill="none" stroke="#9b59b6" d="M469.315,-242C481.938,-242 492.417,-242 497.733,-242"/>
</g>
<!-- siblings_11&#45;&gt;(媽媽那邊)表姐妹 -->
<g id="edge61" class="edge"><title>siblings_11&#45;&gt;(媽媽那邊)表姐妹</title>
<path fill="none" stroke="#9b59b6" d="M541.067,-239C546.443,-239 556,-239 556,-239 556,-239 556,-36 556,-36 556,-36 559.596,-36 559.596,-36"/>
<polygon fill="#9b59b6" stroke="#9b59b6" points="567.596,-26 567.596,-46 563.596,-46.0001 563.596,-26.0001 567.596,-26"/>
<polyline fill="none" stroke="#9b59b6" points="569.596,-36 559.596,-36.0001 "/>
</g>
<!-- siblings_11&#45;&gt;(媽媽那邊)表兄弟 -->
<g id="edge62" class="edge"><title>siblings_11&#45;&gt;(媽媽那邊)表兄弟</title>
<path fill="none" stroke="#9b59b6" d="M538,-238.144C538,-226.732 538,-105 538,-105 538,-105 559.736,-105 559.736,-105"/>
<polygon fill="#9b59b6" stroke="#9b59b6" points="567.735,-95 567.736,-115 563.736,-115 563.735,-95.0001 567.735,-95"/>
<polyline fill="none" stroke="#9b59b6" points="569.736,-105 559.736,-105 "/>
</g>
</g>
</svg>
